<svg xmlns="http://www.w3.org/2000/svg" width="800" height="800" viewBox="0 0 800 800">
  <g fill="none" fill-rule="evenodd" stroke="#000">
    <rect width="799" height="799" x=".5" y=".5"/>
    <circle cx="401" cy="450" r="349.5"/>
    <path d="M543.599247 650C587.260637 650 605.40563 629.638649 620.148437 615.498822L628.653902 636.425766C630.354996 640.384918 634.324213 644.344069 639.427492 644.344069L666.077951 644.344069C671.748261 644.344069 676.851541 639.253731 676.851541 633.5978L676.851541 428.853103C676.851541 422.631579 671.748261 418.106834 666.077951 418.106834L608.240785 418.106834C602.570475 418.106834 596.333133 419.803614 596.333133 428.853103L596.333133 536.881383C596.333133 556.111548 584.425481 577.038492 562.311271 577.038492 539.062998 577.038492 526.021285 556.677141 526.021285 533.487824L526.021285 428.853103C526.021285 422.631579 520.918005 418.106834 515.247695 418.106834L454.575374 418.106834C448.905063 418.106834 443.801784 422.631579 443.801784 428.853103L443.801784 531.225452C443.801784 595.703064 476.122553 650 543.599247 650zM225.683252 645.915161C231.353563 645.915161 236.456842 640.824823 236.456842 635.168892L236.456842 502.254517 295.995101 502.254517C365.172887 502.254517 422.443022 445.129615 422.443022 374.996072 422.443022 306.559309 365.172887 250 295.42807 250L158.77359 250C152.536248 250 148 255.090338 148 260.746269L148 635.168892C148 640.824823 152.536248 645.915161 158.77359 645.915161L225.683252 645.915161zM290.324791 419.677926L236.456842 419.677926 236.456842 333.142184 290.324791 333.142184C314.707125 333.142184 335.120242 351.241163 335.120242 374.996072 335.120242 400.447761 314.707125 419.677926 290.324791 419.677926z"/>
  </g>
</svg>
