<svg xmlns="http://www.w3.org/2000/svg" width="800" height="800" viewBox="0 0 800 800">
  <g fill="none" fill-rule="evenodd" stroke="#000">
    <rect width="799" height="799" x=".5" y=".5"/>
    <path d="M400,103.594011 C403.36667,103.594011 406.73334,104.464846 409.75,106.206515 L409.75,106.206515 L692.858891,269.65951 C695.875552,271.40118 698.313052,273.881384 699.996387,276.797005 C701.679722,279.712627 702.608891,283.063666 702.608891,286.547005 L702.608891,286.547005 L702.608891,613.452995 C702.608891,620.419674 698.892212,626.85715 692.858891,630.34049 L692.858891,630.34049 L409.75,793.793485 C403.716679,797.276824 396.283321,797.276824 390.25,793.793485 L390.25,793.793485 L107.141109,630.34049 C101.107788,626.85715 97.3911087,620.419674 97.3911087,613.452995 L97.3911087,613.452995 L97.3911087,286.547005 C97.3911087,283.063666 98.3202784,279.712627 100.003613,276.797005 C101.686948,273.881384 104.124448,271.40118 107.141109,269.65951 L107.141109,269.65951 L390.25,106.206515 C393.26666,104.464846 396.63333,103.594011 400,103.594011 Z"/>
    <path stroke-width=".8" d="M401.721868,650 C483.492569,650 533,592.222222 533,535 C533,459.444444 464.023355,425.555556 420.63482,408.333333 C376.690021,390.555556 360.002123,375 360.002123,354.444444 C360.002123,339.444444 375.021231,326.111111 395.046709,326.111111 C428.978769,326.111111 469.585987,356.666667 474.592357,359.444444 C479.598726,363.333333 489.611465,358.333333 493.505308,352.222222 L521.874735,309.444444 C524.099788,305.555556 525.212314,295.555556 518.537155,291.666667 C501.849257,279.444444 457.348195,250 399.496815,250 C313.832272,250 271,305.555556 271,360.555556 C271,427.222222 331.076433,464.444444 378.915074,483.333333 C416.740977,498.333333 436.210191,516.111111 436.210191,539.444444 C436.210191,558.888889 420.078556,572.777778 397.828025,572.777778 C361.11465,572.777778 321.063694,543.333333 318.838641,542.222222 C314.944798,539.444444 304.375796,538.333333 299.92569,545.555556 L273.781316,591.666667 C269.33121,599.444444 271,601.666667 276.562633,607.222222 C289.356688,620 329.407643,650 401.721868,650 Z"/>
  </g>
</svg>
