<svg xmlns="http://www.w3.org/2000/svg" width="800" height="800" viewBox="0 0 800 800">
  <g fill="none" fill-rule="evenodd" stroke="#000">
    <rect width="799" height="799" x=".5" y=".5"/>
    <path d="M400,103.594011 C403.36667,103.594011 406.73334,104.464846 409.75,106.206515 L409.75,106.206515 L692.858891,269.65951 C695.875552,271.40118 698.313052,273.881384 699.996387,276.797005 C701.679722,279.712627 702.608891,283.063666 702.608891,286.547005 L702.608891,286.547005 L702.608891,613.452995 C702.608891,620.419674 698.892212,626.85715 692.858891,630.34049 L692.858891,630.34049 L409.75,793.793485 C403.716679,797.276824 396.283321,797.276824 390.25,793.793485 L390.25,793.793485 L107.141109,630.34049 C101.107788,626.85715 97.3911087,620.419674 97.3911087,613.452995 L97.3911087,613.452995 L97.3911087,286.547005 C97.3911087,283.063666 98.3202784,279.712627 100.003613,276.797005 C101.686948,273.881384 104.124448,271.40118 107.141109,269.65951 L107.141109,269.65951 L390.25,106.206515 C393.26666,104.464846 396.63333,103.594011 400,103.594011 Z"/>
    <path stroke-width=".8" d="M529.708861 620C584.063291 620 611 592.45 611 558.616667 611 519.95 584.063291 504.483333 545.101266 490.95 528.746835 485.15 523.455696 480.316667 523.455696 475.483333 523.455696 470.166667 527.78481 468.716667 534.037975 468.716667 552.797468 468.716667 574.924051 479.833333 574.924051 479.833333 578.772152 481.283333 583.582278 479.833333 585.025316 476.933333L602.822785 444.066667C605.708861 439.233333 602.341772 434.883333 598.012658 431.983333 587.43038 425.216667 564.341772 417 534.037975 417 482.088608 417 459 443.1 459 475.483333 459 505.45 475.35443 527.2 512.873418 540.25 537.405063 548.95 540.291139 555.716667 540.291139 560.55 540.291139 566.35 535.962025 569.25 531.151899 569.25 510.468354 569.25 487.860759 556.683333 487.860759 556.683333 484.012658 554.75 479.202532 557.65 477.759494 560.55L460.924051 593.9C458.518987 598.25 460.924051 601.15 464.291139 604.05 473.911392 611.783333 497.962025 620 529.708861 620zM280.952479 618C285.766529 618 290.099174 613.654286 290.099174 608.825714L290.099174 495.354286 340.646694 495.354286C399.378099 495.354286 448 446.585714 448 386.711429 448 328.285714 399.378099 280 340.165289 280L224.146694 280C218.85124 280 215 284.345714 215 289.174286L215 608.825714C215 613.654286 218.85124 618 224.146694 618L280.952479 618zM335.832645 424.857143L290.099174 424.857143 290.099174 350.98 335.832645 350.98C356.533058 350.98 373.863636 366.431429 373.863636 386.711429 373.863636 408.44 356.533058 424.857143 335.832645 424.857143z"/>
  </g>
</svg>
