<svg xmlns="http://www.w3.org/2000/svg" width="800" height="800" viewBox="0 0 800 800">
  <g fill="none" fill-rule="evenodd" stroke="#000">
    <rect width="799" height="799" x=".5" y=".5"/>
    <path d="M400,103.594011 C403.36667,103.594011 406.73334,104.464846 409.75,106.206515 L409.75,106.206515 L692.858891,269.65951 C695.875552,271.40118 698.313052,273.881384 699.996387,276.797005 C701.679722,279.712627 702.608891,283.063666 702.608891,286.547005 L702.608891,286.547005 L702.608891,613.452995 C702.608891,620.419674 698.892212,626.85715 692.858891,630.34049 L692.858891,630.34049 L409.75,793.793485 C403.716679,797.276824 396.283321,797.276824 390.25,793.793485 L390.25,793.793485 L107.141109,630.34049 C101.107788,626.85715 97.3911087,620.419674 97.3911087,613.452995 L97.3911087,613.452995 L97.3911087,286.547005 C97.3911087,283.063666 98.3202784,279.712627 100.003613,276.797005 C101.686948,273.881384 104.124448,271.40118 107.141109,269.65951 L107.141109,269.65951 L390.25,106.206515 C393.26666,104.464846 396.63333,103.594011 400,103.594011 Z"/>
    <path stroke-width=".8" d="M403.068696,650 C452.393112,650 500.054906,632.777778 537.740976,596.111111 C541.620425,592.222222 542.174632,585 538.295183,581.111111 L495.067044,535 C491.741802,531.111111 484.537113,531.111111 480.657664,534.444444 C460.706215,551.666667 432.441663,561.111111 406.393938,561.111111 C343.768556,561.111111 297.215175,510 297.215175,448.333333 C297.215175,386.111111 343.214349,333.888889 405.839731,333.888889 C432.995869,333.888889 460.152008,343.888889 480.657664,362.222222 C484.537113,366.111111 490.633389,366.111111 494.512837,362.222222 L537.740976,317.222222 C542.174632,312.777778 542.174632,306.111111 537.186769,301.666667 C499.500699,267.222222 458.489388,250 403.068696,250 C292.227313,250 203,339.444444 203,450.555556 C203,561.666667 292.227313,650 403.068696,650 Z"/>
  </g>
</svg>
