<svg xmlns="http://www.w3.org/2000/svg" width="800" height="800" viewBox="0 0 800 800">
  <g fill="none" fill-rule="evenodd" stroke="#000">
    <rect width="799" height="799" x=".5" y=".5"/>
    <path d="M414,103.594011 C417.36667,103.594011 420.73334,104.464846 423.75,106.206515 L423.75,106.206515 L706.858891,269.65951 C709.875552,271.40118 712.313052,273.881384 713.996387,276.797005 C715.679722,279.712627 716.608891,283.063666 716.608891,286.547005 L716.608891,286.547005 L716.608891,613.452995 C716.608891,620.419674 712.892212,626.85715 706.858891,630.34049 L706.858891,630.34049 L423.75,793.793485 C417.716679,797.276824 410.283321,797.276824 404.25,793.793485 L404.25,793.793485 L121.141109,630.34049 C115.107788,626.85715 111.391109,620.419674 111.391109,613.452995 L111.391109,613.452995 L111.391109,286.547005 C111.391109,283.063666 112.320278,279.712627 114.003613,276.797005 C115.686948,273.881384 118.124448,271.40118 121.141109,269.65951 L121.141109,269.65951 L404.25,106.206515 C407.26666,104.464846 410.63333,103.594011 414,103.594011 Z"/>
    <path stroke-width=".8" d="M339.041045,650 C344.768657,650 349.923507,644.857143 349.923507,639.142857 L349.923507,493.428571 L389.44403,493.428571 L465.621269,644.857143 C466.766791,647.142857 470.203358,650 474.785448,650 L550.962687,650 C560.699627,650 564.708955,640.857143 560.699627,633.428571 L482.231343,488.285714 C532.061567,468.285714 567,426 567,373.428571 C567,305.428571 510.869403,250 442.13806,250 L270.882463,250 C264.58209,250 260,255.142857 260,260.857143 L260,639.142857 C260,644.857143 264.58209,650 270.882463,650 L339.041045,650 Z M434.692164,420.857143 L349.923507,420.857143 L349.923507,331.714286 L434.692164,331.714286 C458.175373,331.714286 478.222015,351.142857 478.222015,375.142857 C478.222015,399.142857 458.175373,420.857143 434.692164,420.857143 Z"/>
  </g>
</svg>
