<svg xmlns="http://www.w3.org/2000/svg" width="800" height="800" viewBox="0 0 800 800">
  <g fill="none" fill-rule="evenodd" stroke="#000">
    <rect width="799" height="799" x=".5" y=".5"/>
    <circle cx="401" cy="450" r="349.5"/>
    <path d="M574.73349 657.952381C584.461279 657.952381 588.1092 653.702381 588.1092 646.416667L588.1092 520.738095C588.1092 500.095238 602.092897 486.130952 620.332501 486.130952 625.804382 486.130952 631.88425 487.952381 634.924184 489.166667 641.612039 491.595238 645.867947 487.952381 648.299894 483.702381L678.091248 435.130952C686.603063 421.166667 662.891577 409.02381 629.452303 409.02381 597.836989 409.02381 575.341477 431.488095 563.181741 449.095238L552.237979 422.380952C550.414018 418.738095 547.982071 415.095238 541.294216 415.095238L512.718836 415.095238C506.638968 415.095238 501.167087 419.952381 501.167087 426.630952L501.167087 646.416667C501.167087 652.488095 506.638968 657.952381 512.718836 657.952381L574.73349 657.952381zM267.294193 662C273.374061 662 278.845942 656.535714 278.845942 650.464286L278.845942 507.785714 342.684557 507.785714C416.858947 507.785714 478.265615 446.464286 478.265615 371.178571 478.265615 297.714286 416.858947 237 342.07657 237L195.551749 237C188.863894 237 184 242.464286 184 248.535714L184 650.464286C184 656.535714 188.863894 662 195.551749 662L267.294193 662zM336.604689 419.142857L278.845942 419.142857 278.845942 326.25 336.604689 326.25C362.748121 326.25 384.635646 345.678571 384.635646 371.178571 384.635646 398.5 362.748121 419.142857 336.604689 419.142857z"/>
  </g>
</svg>
