<svg xmlns="http://www.w3.org/2000/svg" width="800" height="800" viewBox="0 0 800 800">
  <g fill="none" fill-rule="evenodd" stroke="#000">
    <rect width="799" height="799" x=".5" y=".5"/>
    <rect width="699" height="699" x="50.5" y="100.5" rx="20"/>
    <path d="M252.914056,700 C267.008858,700 274.761,691.549296 278.2847,683.098592 L303.655344,626.760563 L495.344656,626.760563 L520.7153,682.394366 C527.057961,695.774648 532.695882,700 545.381204,700 L623.607356,700 C634.178458,700 639.816379,690.84507 635.587938,681.690141 L415.004283,207.746479 C412.890062,203.521127 407.956881,200 403.023701,200 L395.976299,200 C391.043119,200 386.109938,203.521127 383.995717,207.746479 L163.412062,681.690141 C159.183621,690.84507 164.821542,700 175.392644,700 L252.914056,700 Z M453.060249,530.985915 L345.939751,530.985915 L398.79526,414.788732 L399.5,414.788732 L453.060249,530.985915 Z"/>
  </g>
</svg>
