<svg xmlns="http://www.w3.org/2000/svg" width="800" height="802" viewBox="0 0 800 802">
  <g fill="none" fill-rule="evenodd" stroke="#000">
    <rect width="799" height="799" x=".5" y=".5"/>
    <rect width="699" height="699" x="50.5" y="102.5" rx="20"/>
    <path d="M355.551011,700 C362.671523,700 369.079983,693.571429 369.079983,686.428571 L369.079983,518.571429 L443.845356,518.571429 C530.7156,518.571429 602.632768,446.428571 602.632768,357.857143 C602.632768,271.428571 530.7156,200 443.133305,200 L271.528972,200 C263.696409,200 258,206.428571 258,213.571429 L258,686.428571 C258,693.571429 263.696409,700 271.528972,700 L355.551011,700 Z M436.724845,414.285714 L369.079983,414.285714 L369.079983,305 L436.724845,305 C467.343045,305 492.976888,327.857143 492.976888,357.857143 C492.976888,390 467.343045,414.285714 436.724845,414.285714 Z"/>
  </g>
</svg>
