<svg xmlns="http://www.w3.org/2000/svg" width="800" height="800" viewBox="0 0 800 800">
  <g fill="none" fill-rule="evenodd" stroke="#000">
    <rect width="799" height="799" x=".5" y=".5"/>
    <path d="M400,103.594011 C403.36667,103.594011 406.73334,104.464846 409.75,106.206515 L409.75,106.206515 L692.858891,269.65951 C695.875552,271.40118 698.313052,273.881384 699.996387,276.797005 C701.679722,279.712627 702.608891,283.063666 702.608891,286.547005 L702.608891,286.547005 L702.608891,613.452995 C702.608891,620.419674 698.892212,626.85715 692.858891,630.34049 L692.858891,630.34049 L409.75,793.793485 C403.716679,797.276824 396.283321,797.276824 390.25,793.793485 L390.25,793.793485 L107.141109,630.34049 C101.107788,626.85715 97.3911087,620.419674 97.3911087,613.452995 L97.3911087,613.452995 L97.3911087,286.547005 C97.3911087,283.063666 98.3202784,279.712627 100.003613,276.797005 C101.686948,273.881384 104.124448,271.40118 107.141109,269.65951 L107.141109,269.65951 L390.25,106.206515 C393.26666,104.464846 396.63333,103.594011 400,103.594011 Z"/>
    <path stroke-width=".8" d="M370.123967,650 C375.826446,650 380.958678,644.857143 380.958678,639.142857 L380.958678,504.857143 L440.834711,504.857143 C510.404959,504.857143 568,447.142857 568,376.285714 C568,307.142857 510.404959,250 440.264463,250 L302.834711,250 C296.561983,250 292,255.142857 292,260.857143 L292,639.142857 C292,644.857143 296.561983,650 302.834711,650 L370.123967,650 Z M435.132231,421.428571 L380.958678,421.428571 L380.958678,334 L435.132231,334 C459.652893,334 480.181818,352.285714 480.181818,376.285714 C480.181818,402 459.652893,421.428571 435.132231,421.428571 Z"/>
  </g>
</svg>
