<svg xmlns="http://www.w3.org/2000/svg" width="800" height="800" viewBox="0 0 800 800">
  <g fill="none" fill-rule="evenodd" stroke="#000">
    <rect width="799" height="799" x=".5" y=".5"/>
    <path d="M400,103.594011 C403.36667,103.594011 406.73334,104.464846 409.75,106.206515 L409.75,106.206515 L692.858891,269.65951 C695.875552,271.40118 698.313052,273.881384 699.996387,276.797005 C701.679722,279.712627 702.608891,283.063666 702.608891,286.547005 L702.608891,286.547005 L702.608891,613.452995 C702.608891,620.419674 698.892212,626.85715 692.858891,630.34049 L692.858891,630.34049 L409.75,793.793485 C403.716679,797.276824 396.283321,797.276824 390.25,793.793485 L390.25,793.793485 L107.141109,630.34049 C101.107788,626.85715 97.3911087,620.419674 97.3911087,613.452995 L97.3911087,613.452995 L97.3911087,286.547005 C97.3911087,283.063666 98.3202784,279.712627 100.003613,276.797005 C101.686948,273.881384 104.124448,271.40118 107.141109,269.65951 L107.141109,269.65951 L390.25,106.206515 C393.26666,104.464846 396.63333,103.594011 400,103.594011 Z"/>
    <path stroke-width=".8" d="M526.880712 616C534.666591 616 537.586295 612.602439 537.586295 606.778049L537.586295 506.307317C537.586295 489.804878 548.778497 478.641463 563.37702 478.641463 567.756577 478.641463 572.622752 480.097561 575.055839 481.068293 580.408631 483.009756 583.814953 480.097561 585.761423 476.7L609.605678 437.870732C616.418322 426.707317 597.440242 417 570.676282 417 545.372175 417 527.367329 434.958537 517.63498 449.034146L508.875866 427.678049C507.416014 424.765854 505.469544 421.853659 500.116752 421.853659L477.245732 421.853659C472.379557 421.853659 468 425.736585 468 431.07561L468 606.778049C468 611.631707 472.379557 616 477.245732 616L526.880712 616zM281.518595 620C286.373967 620 290.743802 615.628571 290.743802 610.771429L290.743802 496.628571 341.725207 496.628571C400.960744 496.628571 450 447.571429 450 387.342857 450 328.571429 400.960744 280 341.239669 280L224.225207 280C218.884298 280 215 284.371429 215 289.228571L215 610.771429C215 615.628571 218.884298 620 224.225207 620L281.518595 620zM336.869835 425.714286L290.743802 425.714286 290.743802 351.4 336.869835 351.4C357.747934 351.4 375.227273 366.942857 375.227273 387.342857 375.227273 409.2 357.747934 425.714286 336.869835 425.714286z"/>
  </g>
</svg>
