<svg xmlns="http://www.w3.org/2000/svg" width="800" height="800" viewBox="0 0 800 800">
  <g fill="none" fill-rule="evenodd" stroke="#000">
    <rect width="799" height="799" x=".5" y=".5"/>
    <circle cx="401" cy="450" r="349.5"/>
    <path d="M252.914056,650 C267.008858,650 274.761,641.549296 278.2847,633.098592 L303.655344,576.760563 L495.344656,576.760563 L520.7153,632.394366 C527.057961,645.774648 532.695882,650 545.381204,650 L623.607356,650 C634.178458,650 639.816379,640.84507 635.587938,631.690141 L415.004283,157.746479 C412.890062,153.521127 407.956881,150 403.023701,150 L395.976299,150 C391.043119,150 386.109938,153.521127 383.995717,157.746479 L163.412062,631.690141 C159.183621,640.84507 164.821542,650 175.392644,650 L252.914056,650 Z M453.060249,480.985915 L345.939751,480.985915 L398.79526,364.788732 L399.5,364.788732 L453.060249,480.985915 Z"/>
  </g>
</svg>
