<svg xmlns="http://www.w3.org/2000/svg" width="800" height="800" viewBox="0 0 800 800">
  <g fill="none" fill-rule="evenodd" stroke="#000">
    <rect width="799" height="799" x=".5" y=".5"/>
    <path d="M400,103.594011 C403.36667,103.594011 406.73334,104.464846 409.75,106.206515 L409.75,106.206515 L692.858891,269.65951 C695.875552,271.40118 698.313052,273.881384 699.996387,276.797005 C701.679722,279.712627 702.608891,283.063666 702.608891,286.547005 L702.608891,286.547005 L702.608891,613.452995 C702.608891,620.419674 698.892212,626.85715 692.858891,630.34049 L692.858891,630.34049 L409.75,793.793485 C403.716679,797.276824 396.283321,797.276824 390.25,793.793485 L390.25,793.793485 L107.141109,630.34049 C101.107788,626.85715 97.3911087,620.419674 97.3911087,613.452995 L97.3911087,613.452995 L97.3911087,286.547005 C97.3911087,283.063666 98.3202784,279.712627 100.003613,276.797005 C101.686948,273.881384 104.124448,271.40118 107.141109,269.65951 L107.141109,269.65951 L390.25,106.206515 C393.26666,104.464846 396.63333,103.594011 400,103.594011 Z"/>
    <path stroke-width=".8" d="M403.996839,612 C406.495083,612 410.991922,609.5 412.490869,606.5 L496.431865,444.5 L497.431163,444.5 L519.915358,599 C520.415007,603 524.911846,607 529.408685,607 L588.367242,607 C594.363028,607 598.859867,602.5 597.860569,596 L541.400256,260 C540.900607,255.5 536.403768,252 532.406578,252 L524.412197,252 C521.913953,252 517.417114,254 515.918168,257 L399.999649,473 L399.000351,473 L283.081832,257 C281.582886,254 277.086047,252 274.587803,252 L266.593422,252 C262.596232,252 258.099393,255.5 257.599744,260 L201.139431,596 C200.140133,602.5 204.636972,607 210.632758,607 L269.591315,607 C274.587803,607 278.584993,603 279.084642,599 L301.069188,444.5 L302.068486,444.5 L386.509131,606.5 C388.008078,609.5 392.005268,612 395.003161,612 L403.996839,612 Z"/>
  </g>
</svg>
