<svg xmlns="http://www.w3.org/2000/svg" width="800" height="800" viewBox="0 0 800 800">
  <g fill="none" fill-rule="evenodd" stroke="#000">
    <rect width="799" height="799" x=".5" y=".5"/>
    <path d="M400,103.594011 C403.36667,103.594011 406.73334,104.464846 409.75,106.206515 L409.75,106.206515 L692.858891,269.65951 C695.875552,271.40118 698.313052,273.881384 699.996387,276.797005 C701.679722,279.712627 702.608891,283.063666 702.608891,286.547005 L702.608891,286.547005 L702.608891,613.452995 C702.608891,620.419674 698.892212,626.85715 692.858891,630.34049 L692.858891,630.34049 L409.75,793.793485 C403.716679,797.276824 396.283321,797.276824 390.25,793.793485 L390.25,793.793485 L107.141109,630.34049 C101.107788,626.85715 97.3911087,620.419674 97.3911087,613.452995 L97.3911087,613.452995 L97.3911087,286.547005 C97.3911087,283.063666 98.3202784,279.712627 100.003613,276.797005 C101.686948,273.881384 104.124448,271.40118 107.141109,269.65951 L107.141109,269.65951 L390.25,106.206515 C393.26666,104.464846 396.63333,103.594011 400,103.594011 Z"/>
    <path stroke-width=".8" d="M517.649635 610C552.49635 610 566.978102 593.668293 578.744526 582.326829L585.532847 599.112195C586.890511 602.287805 590.058394 605.463415 594.131387 605.463415L615.40146 605.463415C619.927007 605.463415 624 601.380488 624 596.843902L624 432.619512C624 427.629268 619.927007 424 615.40146 424L569.240876 424C564.715328 424 559.737226 425.360976 559.737226 432.619512L559.737226 519.268293C559.737226 534.692683 550.233577 551.478049 532.583942 551.478049 514.029197 551.478049 503.620438 535.146341 503.620438 516.546341L503.620438 432.619512C503.620438 427.629268 499.547445 424 495.021898 424L446.59854 424C442.072993 424 438 427.629268 438 432.619512L438 514.731707C438 566.44878 463.79562 610 517.649635 610zM263.272727 607C267.818182 607 271.909091 602.924286 271.909091 598.395714L271.909091 491.974286 319.636364 491.974286C375.090909 491.974286 421 446.235714 421 390.081429 421 335.285714 375.090909 290 319.181818 290L209.636364 290C204.636364 290 201 294.075714 201 298.604286L201 598.395714C201 602.924286 204.636364 607 209.636364 607L263.272727 607zM315.090909 425.857143L271.909091 425.857143 271.909091 356.57 315.090909 356.57C334.636364 356.57 351 371.061429 351 390.081429 351 410.46 334.636364 425.857143 315.090909 425.857143z"/>
  </g>
</svg>
