<?xml version="1.0" encoding="UTF-8"?>
<svg width="800px" height="800px" viewBox="0 0 800 800" version="1.1" xmlns="http://www.w3.org/2000/svg" xmlns:xlink="http://www.w3.org/1999/xlink">
    <title>uniE909</title>
    <g id="Page-1" stroke="none" stroke-width="1" fill="none" fill-rule="evenodd">
        <g id="icons" transform="translate(-381.000000, -3012.000000)" stroke="#000000">
            <g id="uniE909" transform="translate(381.000000, 3012.000000)">
                <rect id="cap-height" x="0.5" y="0.5" width="799" height="799"></rect>
                <circle id="Oval" cx="401" cy="450" r="349.5"></circle>
                <path d="M218.347331,600 C222.647862,600 226.518341,596.142857 226.518341,591.857143 L226.518341,482.571429 L256.192006,482.571429 L313.389072,596.142857 C314.249178,597.857143 316.829497,600 320.269922,600 L377.466987,600 C384.77789,600 387.788262,593.142857 384.77789,587.571429 L325.860612,478.714286 C363.275234,463.714286 389.508475,432 389.508475,392.571429 C389.508475,341.571429 347.363268,300 295.756893,300 L167.171009,300 C162.440425,300 159,303.857143 159,308.142857 L159,591.857143 C159,596.142857 162.440425,600 167.171009,600 L218.347331,600 Z M290.166203,428.142857 L226.518341,428.142857 L226.518341,361.285714 L290.166203,361.285714 C307.798381,361.285714 322.85024,375.857143 322.85024,393.857143 C322.85024,411.857143 307.798381,428.142857 290.166203,428.142857 Z" id="R" fill-rule="nonzero"></path>
                <path d="M470.347331,600 C474.647862,600 478.518341,596.142857 478.518341,591.857143 L478.518341,482.571429 L508.192006,482.571429 L565.389072,596.142857 C566.249178,597.857143 568.829497,600 572.269922,600 L629.466987,600 C636.77789,600 639.788262,593.142857 636.77789,587.571429 L577.860612,478.714286 C615.275234,463.714286 641.508475,432 641.508475,392.571429 C641.508475,341.571429 599.363268,300 547.756893,300 L419.171009,300 C414.440425,300 411,303.857143 411,308.142857 L411,591.857143 C411,596.142857 414.440425,600 419.171009,600 L470.347331,600 Z M542.166203,428.142857 L478.518341,428.142857 L478.518341,361.285714 L542.166203,361.285714 C559.798381,361.285714 574.85024,375.857143 574.85024,393.857143 C574.85024,411.857143 559.798381,428.142857 542.166203,428.142857 Z" id="R-Copy" fill-rule="nonzero"></path>
            </g>
        </g>
    </g>
</svg>