<?xml version="1.0" encoding="UTF-8"?>
<svg width="800px" height="804px" viewBox="0 0 800 804" version="1.1" xmlns="http://www.w3.org/2000/svg" xmlns:xlink="http://www.w3.org/1999/xlink">
    <title>uniE959</title>
    <g id="Page-1" stroke="none" stroke-width="1" fill="none" fill-rule="evenodd">
        <g id="icons-square" transform="translate(-381.000000, -3014.000000)" stroke="#000000">
            <g id="uniE959" transform="translate(381.000000, 3014.000000)">
                <rect id="cap-height" x="0.5" y="0.5" width="799" height="799"></rect>
                <rect id="Rectangle" x="51.5" y="104.5" width="699" height="699" rx="20"></rect>
                <path d="M479.238553,604 C484.255839,604 488.771397,599.5 488.771397,594.5 L488.771397,467 L523.390674,467 L590.120584,599.5 C591.124041,601.5 594.134413,604 598.148242,604 L664.878152,604 C673.407539,604 676.919639,596 673.407539,589.5 L604.670714,462.5 C648.321106,445 678.926554,408 678.926554,362 C678.926554,302.5 629.757146,254 569.549709,254 L419.532844,254 C414.013829,254 410,258.5 410,263.5 L410,594.5 C410,599.5 414.013829,604 419.532844,604 L479.238553,604 Z M563.027237,403.5 L488.771397,403.5 L488.771397,325.5 L563.027237,325.5 C583.598111,325.5 601.158614,342.5 601.158614,363.5 C601.158614,384.5 583.598111,403.5 563.027237,403.5 Z" id="R" fill-rule="nonzero"></path>
                <path d="M191.238553,604 C196.255839,604 200.771397,599.5 200.771397,594.5 L200.771397,467 L235.390674,467 L302.120584,599.5 C303.124041,601.5 306.134413,604 310.148242,604 L376.878152,604 C385.407539,604 388.919639,596 385.407539,589.5 L316.670714,462.5 C360.321106,445 390.926554,408 390.926554,362 C390.926554,302.5 341.757146,254 281.549709,254 L131.532844,254 C126.013829,254 122,258.5 122,263.5 L122,594.5 C122,599.5 126.013829,604 131.532844,604 L191.238553,604 Z M275.027237,403.5 L200.771397,403.5 L200.771397,325.5 L275.027237,325.5 C295.598111,325.5 313.158614,342.5 313.158614,363.5 C313.158614,384.5 295.598111,403.5 275.027237,403.5 Z" id="R-Copy" fill-rule="nonzero"></path>
            </g>
        </g>
    </g>
</svg>