<?xml version="1.0" encoding="UTF-8"?>
<svg width="800px" height="800px" viewBox="0 0 800 800" version="1.1" xmlns="http://www.w3.org/2000/svg" xmlns:xlink="http://www.w3.org/1999/xlink">
    <title>uniE9A9</title>
    <g id="Page-1" stroke="none" stroke-width="1" fill="none" fill-rule="evenodd">
        <g id="icons-hex" transform="translate(-381.000000, -3012.000000)" stroke="#000000">
            <g id="uniE9A9" transform="translate(381.000000, 3012.000000)">
                <rect id="cap-height" x="0.5" y="0.5" width="799" height="799"></rect>
                <path d="M404.25,106.206515 C410.283321,102.723176 417.716679,102.723176 423.75,106.206515 L423.75,106.206515 L706.858891,269.65951 C712.892212,273.14285 716.608891,279.580326 716.608891,286.547005 L716.608891,286.547005 L716.608891,613.452995 C716.608891,620.419674 712.892212,626.85715 706.858891,630.34049 L706.858891,630.34049 L423.75,793.793485 C420.73334,795.535154 417.36667,796.405989 414,796.405989 C410.63333,796.405989 407.26666,795.535154 404.25,793.793485 L404.25,793.793485 L121.141109,630.34049 C115.107788,626.85715 111.391109,620.419674 111.391109,613.452995 L111.391109,613.452995 L111.391109,286.547005 C111.391109,283.063666 112.320278,279.712627 114.003613,276.797005 C115.686948,273.881384 118.124448,271.40118 121.141109,269.65951 L121.141109,269.65951 Z" id="Polygon"></path>
                <path d="M233.280784,600 C237.576493,600 241.442631,596.142857 241.442631,591.857143 L241.442631,482.571429 L271.083022,482.571429 L328.215951,596.142857 C329.075093,597.857143 331.652519,600 335.089086,600 L392.222015,600 C399.52472,600 402.531716,593.142857 399.52472,587.571429 L340.673507,478.714286 C378.046175,463.714286 404.25,432 404.25,392.571429 C404.25,341.571429 362.152052,300 310.603545,300 L182.161847,300 C177.436567,300 174,303.857143 174,308.142857 L174,591.857143 C174,596.142857 177.436567,600 182.161847,600 L233.280784,600 Z M305.019123,428.142857 L241.442631,428.142857 L241.442631,361.285714 L305.019123,361.285714 C322.63153,361.285714 337.666511,375.857143 337.666511,393.857143 C337.666511,411.857143 322.63153,428.142857 305.019123,428.142857 Z" id="R" stroke-width="0.8" fill-rule="nonzero"></path>
                <path d="M483.280784,600 C487.576493,600 491.442631,596.142857 491.442631,591.857143 L491.442631,482.571429 L521.083022,482.571429 L578.215951,596.142857 C579.075093,597.857143 581.652519,600 585.089086,600 L642.222015,600 C649.52472,600 652.531716,593.142857 649.52472,587.571429 L590.673507,478.714286 C628.046175,463.714286 654.25,432 654.25,392.571429 C654.25,341.571429 612.152052,300 560.603545,300 L432.161847,300 C427.436567,300 424,303.857143 424,308.142857 L424,591.857143 C424,596.142857 427.436567,600 432.161847,600 L483.280784,600 Z M555.019123,428.142857 L491.442631,428.142857 L491.442631,361.285714 L555.019123,361.285714 C572.63153,361.285714 587.666511,375.857143 587.666511,393.857143 C587.666511,411.857143 572.63153,428.142857 555.019123,428.142857 Z" id="R-Copy" stroke-width="0.8" fill-rule="nonzero"></path>
            </g>
        </g>
    </g>
</svg>