<svg xmlns="http://www.w3.org/2000/svg" width="800" height="800" viewBox="0 0 800 800">
  <g fill="none" fill-rule="evenodd" stroke="#000">
    <rect width="799" height="799" x=".5" y=".5"/>
    <circle cx="401" cy="450" r="349.5"/>
    <path d="M320.912219,700 C328.079771,700 334.530568,693.571429 334.530568,686.428571 L334.530568,504.285714 L383.986677,504.285714 L479.315119,693.571429 C480.74863,696.428571 485.049161,700 490.783203,700 L586.111645,700 C598.296484,700 603.31377,688.571429 598.296484,679.285714 L500.10102,497.857143 C562.458723,472.857143 606.180791,420 606.180791,354.285714 C606.180791,269.285714 535.938781,200 449.928156,200 L235.618349,200 C227.734042,200 222,206.428571 222,213.571429 L222,686.428571 C222,693.571429 227.734042,700 235.618349,700 L320.912219,700 Z M440.610338,413.571429 L334.530568,413.571429 L334.530568,302.142857 L440.610338,302.142857 C469.997302,302.142857 495.083734,326.428571 495.083734,356.428571 C495.083734,386.428571 469.997302,413.571429 440.610338,413.571429 Z"/>
  </g>
</svg>
