<svg xmlns="http://www.w3.org/2000/svg" width="800" height="802" viewBox="0 0 800 802">
  <g fill="none" fill-rule="evenodd" stroke="#000">
    <rect width="799" height="799" x=".5" y=".5"/>
    <rect width="699" height="699" x="50.5" y="102.5" rx="20"/>
    <path d="M558.638933 663C626.572101 663 660.238095 628.556872 660.238095 586.258294 660.238095 537.917062 626.572101 518.580569 577.876644 501.661137 557.436576 494.409953 550.823613 488.367299 550.823613 482.324645 550.823613 475.677725 556.234219 473.864929 564.049539 473.864929 587.4955 473.864929 615.14971 487.763033 615.14971 487.763033 619.959138 489.575829 625.970922 487.763033 627.774458 484.137441L650.018061 443.047393C653.625132 437.004739 649.416883 431.566351 644.006276 427.940758 630.78035 419.481043 601.923783 409.208531 564.049539 409.208531 499.122264 409.208531 470.265698 441.838863 470.265698 482.324645 470.265698 519.7891 490.705766 546.981043 537.597687 563.296209 568.257789 574.172986 571.86486 582.632701 571.86486 588.675355 571.86486 595.92654 566.454253 599.552133 560.442469 599.552133 534.591794 599.552133 506.336406 583.841232 506.336406 583.841232 501.526978 581.424171 495.515194 585.049763 493.711658 588.675355L472.670412 630.369668C469.664519 635.808057 472.670412 639.433649 476.878661 643.059242 488.90223 652.727488 518.961154 663 558.638933 663zM247.361451 660.985782C253.373236 660.985782 258.783842 655.547393 258.783842 649.504739L258.783842 507.50237 321.907582 507.50237C395.251355 507.50237 455.970381 446.471564 455.970381 371.542654 455.970381 298.42654 395.251355 238 321.306403 238L176.422391 238C169.809428 238 165 243.438389 165 249.481043L165 649.504739C165 655.547393 169.809428 660.985782 176.422391 660.985782L247.361451 660.985782zM315.895797 419.279621L258.783842 419.279621 258.783842 326.827014 315.895797 326.827014C341.746471 326.827014 363.388896 346.163507 363.388896 371.542654 363.388896 398.734597 341.746471 419.279621 315.895797 419.279621z"/>
  </g>
</svg>
