<svg xmlns="http://www.w3.org/2000/svg" width="800" height="800" viewBox="0 0 800 800">
  <g fill="none" fill-rule="evenodd" stroke="#000">
    <rect width="799" height="799" x=".5" y=".5"/>
    <circle cx="401" cy="450" r="349.5"/>
    <path d="M411.427362,700 C473.167072,700 532.825668,678.472222 579.997581,632.638889 C584.853513,627.777778 585.547218,618.75 580.691285,613.888889 L526.582326,556.25 C522.420099,551.388889 513.401939,551.388889 508.546007,555.555556 C483.572641,577.083333 448.193706,588.888889 415.58959,588.888889 C337.200969,588.888889 278.929783,525 278.929783,447.916667 C278.929783,370.138889 336.507265,304.861111 414.895885,304.861111 C448.887411,304.861111 482.878936,317.361111 508.546007,340.277778 C513.401939,345.138889 521.032689,345.138889 525.888622,340.277778 L579.997581,284.027778 C585.547218,278.472222 585.547218,270.138889 579.303876,264.583333 C532.131963,221.527778 480.797822,200 411.427362,200 C272.686441,200 161,311.805556 161,450.694444 C161,589.583333 272.686441,700 411.427362,700 Z"/>
  </g>
</svg>
