<svg xmlns="http://www.w3.org/2000/svg" width="800" height="800" viewBox="0 0 800 800">
  <g fill="none" fill-rule="evenodd" stroke="#000">
    <rect width="799" height="799" x=".5" y=".5"/>
    <path d="M402,103.594011 C405.36667,103.594011 408.73334,104.464846 411.75,106.206515 L411.75,106.206515 L694.858891,269.65951 C697.875552,271.40118 700.313052,273.881384 701.996387,276.797005 C703.679722,279.712627 704.608891,283.063666 704.608891,286.547005 L704.608891,286.547005 L704.608891,613.452995 C704.608891,620.419674 700.892212,626.85715 694.858891,630.34049 L694.858891,630.34049 L411.75,793.793485 C405.716679,797.276824 398.283321,797.276824 392.25,793.793485 L392.25,793.793485 L109.141109,630.34049 C103.107788,626.85715 99.3911087,620.419674 99.3911087,613.452995 L99.3911087,613.452995 L99.3911087,286.547005 C99.3911087,283.063666 100.320278,279.712627 102.003613,276.797005 C103.686948,273.881384 106.124448,271.40118 109.141109,269.65951 L109.141109,269.65951 L392.25,106.206515 C395.26666,104.464846 398.63333,103.594011 402,103.594011 Z"/>
    <path stroke-width=".8" d="M282.731245,600 C294.007087,600 300.2088,593.239437 303.02776,586.478873 L323.324276,541.408451 L476.675724,541.408451 L496.97224,585.915493 C502.046369,596.619718 506.556705,600 516.704963,600 L579.285885,600 C587.742767,600 592.253103,592.676056 588.870351,585.352113 L412.403426,206.197183 C410.71205,202.816901 406.765505,200 402.81896,200 L397.18104,200 C393.234495,200 389.28795,202.816901 387.596574,206.197183 L211.129649,585.352113 C207.746897,592.676056 212.257233,600 220.714115,600 L282.731245,600 Z M442.848199,464.788732 L357.151801,464.788732 L399.436208,371.830986 L400,371.830986 L442.848199,464.788732 Z"/>
  </g>
</svg>
