<svg xmlns="http://www.w3.org/2000/svg" width="800" height="800" viewBox="0 0 800 800">
  <g fill="none" fill-rule="evenodd" stroke="#000">
    <rect width="799" height="799" x=".5" y=".5"/>
    <circle cx="401" cy="450" r="349.5"/>
    <path d="M405.320319,656.88 C408.445319,656.88 414.070319,653.755 415.945319,650.005 L520.945319,447.505 L522.195319,447.505 L550.320319,640.63 C550.945319,645.63 556.570319,650.63 562.195319,650.63 L635.945319,650.63 C643.445319,650.63 649.070319,645.005 647.820319,636.88 L577.195319,216.88 C576.570319,211.255 570.945319,206.88 565.945319,206.88 L555.945319,206.88 C552.820319,206.88 547.195319,209.38 545.320319,213.13 L400.320319,483.13 L399.070319,483.13 L254.070319,213.13 C252.195319,209.38 246.570319,206.88 243.445319,206.88 L233.445319,206.88 C228.445319,206.88 222.820319,211.255 222.195319,216.88 L151.570319,636.88 C150.320319,645.005 155.945319,650.63 163.445319,650.63 L237.195319,650.63 C243.445319,650.63 248.445319,645.63 249.070319,640.63 L276.570319,447.505 L277.820319,447.505 L383.445319,650.005 C385.320319,653.755 390.320319,656.88 394.070319,656.88 L405.320319,656.88 Z"/>
  </g>
</svg>
