<svg xmlns="http://www.w3.org/2000/svg" width="800" height="800" viewBox="0 0 800 800">
  <g fill="none" fill-rule="evenodd" stroke="#000">
    <rect width="799" height="799" x=".5" y=".5"/>
    <rect width="699" height="699" x="51.5" y="100.5" rx="20"/>
    <path d="M401.114486,700 C503.147803,700 564.923077,627.777778 564.923077,556.25 C564.923077,461.805556 478.854156,419.444444 424.714029,397.916667 C369.879797,375.694444 349.056672,356.25 349.056672,330.555556 C349.056672,311.805556 367.797485,295.138889 392.785236,295.138889 C435.125592,295.138889 485.795198,333.333333 492.042136,336.805556 C498.289074,341.666667 510.78295,335.416667 515.641679,327.777778 L551.040993,274.305556 C553.81741,269.444444 555.205618,256.944444 546.876368,252.083333 C526.053242,236.805556 470.524906,200 398.33807,200 C291.446023,200 238,269.444444 238,338.194444 C238,421.527778 312.963253,468.055556 372.656214,491.666667 C419.8553,510.416667 444.148947,532.638889 444.148947,561.805556 C444.148947,586.111111 424.019925,603.472222 396.255757,603.472222 C350.44488,603.472222 300.469378,566.666667 297.692961,565.277778 C292.834232,561.805556 279.646252,560.416667 274.093418,569.444444 L241.470521,627.083333 C235.917687,636.805556 238,639.583333 244.941042,646.527778 C260.905439,662.5 310.880941,700 401.114486,700 Z"/>
  </g>
</svg>
